<?xml version="1.0" encoding="utf-8"?>
<!-- Generator: Adobe Illustrator 27.9.0, SVG Export Plug-In . SVG Version: 6.00 Build 0)  -->
<svg version="1.1" id="Layer_1" xmlns="http://www.w3.org/2000/svg" xmlns:xlink="http://www.w3.org/1999/xlink" x="0px" y="0px"
	 viewBox="0 0 800 800" style="enable-background:new 0 0 800 800;" xml:space="preserve">
<style type="text/css">
	.st0{stroke:#000000;stroke-width:40;stroke-linecap:round;stroke-linejoin:round;stroke-miterlimit:133.3333;}
</style>
<path d="M636.5,710.2L602,666.1c76.8-60.1,126.1-153.5,126.1-258.4c0-181.2-146.5-327.8-327.7-328C219,79.4,71.9,226.4,71.9,407.7
	c0,141.6,89.8,262.3,215.7,308.3c3.3,1.2,7-0.5,8-3.8l10.7-32.4c1.2-3.4-0.6-7-3.9-8.3c-4.1-1.5-8.2-3.2-12.2-4.8
	c-33.6-14.2-63.8-34.5-89.8-60.5c-25.7-25.7-46.3-56.2-60.6-89.7c-14.7-34.7-22.2-71.7-22.2-109.7c0-38.1,7.5-75.1,22.2-109.7
	c14.2-33.5,34.8-63.9,60.6-89.7c25.7-25.8,56.2-46.3,89.8-60.5c34.8-14.7,71.7-22.2,109.8-22.2s75.1,7.5,109.8,22.2
	c33.6,14.2,63.8,34.5,89.8,60.5s46.3,56.1,60.6,89.7c14.7,34.6,22.2,71.7,22.2,109.7c0,38.1-7.5,75.1-22.2,109.7
	c-14.2,33.5-34.8,63.9-60.6,89.7C591.6,614.3,583,622,574,629l-38.5-49.3c-2.2-2.8-6.3-3.4-9.2-1.2c-1.2,0.9-2,2.2-2.3,3.7
	l-35.4,144c-0.9,4.1,2.1,8.1,6.3,8.1l136.8-13.9C636.8,720.3,639.7,714.3,636.5,710.2L636.5,710.2z"/>
<path class="st0" d="M371.3,266.2l-80,266.7"/>
<path class="st0" d="M504.7,266.2l-80,266.7"/>
<path class="st0" d="M558,346.2H264.7"/>
<path class="st0" d="M531.3,452.8H238"/>
</svg>
